<svg xmlns="http://www.w3.org/2000/svg" xmlns:xlink="http://www.w3.org/1999/xlink" contentStyleType="text/css" data-diagram-type="DESCRIPTION" height="707px" preserveAspectRatio="none" style="width:485px;height:707px;background:#FFFFFF;" version="1.1" viewBox="0 0 485 707" width="485px" zoomAndPan="magnify"><defs/><g><!--cluster DOVECOT--><g class="cluster" data-entity="DOVECOT" data-source-line="7" data-uid="ent0003" id="cluster_DOVECOT"><path d="M8.5,144.8 L85.1465,144.8 A3.75,3.75 0 0 1 87.6465,147.3 L94.6465,167.0969 L277.5,167.0969 A2.5,2.5 0 0 1 280,169.5969 L280,595.78 A2.5,2.5 0 0 1 277.5,598.28 L8.5,598.28 A2.5,2.5 0 0 1 6,595.78 L6,147.3 A2.5,2.5 0 0 1 8.5,144.8" fill="none" style="stroke:#000000;stroke-width:1.5;"/><line style="stroke:#000000;stroke-width:1.5;" x1="6" x2="94.6465" y1="167.0969" y2="167.0969"/><text fill="#000000" font-family="sans-serif" font-size="14" font-weight="bold" lengthAdjust="spacing" textLength="75.6465" x="10" y="159.7951">DOVECOT</text></g><!--entity SubLogin--><g class="entity" data-entity="SubLogin" data-source-line="8" data-uid="ent0004" id="entity_SubLogin"><ellipse cx="142.9992" cy="204.7688" fill="#F1F1F1" rx="104.0392" ry="24.9688" style="stroke:#181818;stroke-width:0.5;"/><text fill="#000000" font-family="sans-serif" font-size="14" lengthAdjust="spacing" textLength="117.6533" x="84.1725" y="199.7043">submission-login</text><text fill="#000000" font-family="sans-serif" font-size="14" lengthAdjust="spacing" textLength="149.9053" x="68.0465" y="216.0012">(Handles TLS &amp; Auth)</text></g><!--entity Auth--><g class="entity" data-entity="Auth" data-source-line="9" data-uid="ent0005" id="entity_Auth"><rect fill="#F1F1F1" height="46.2969" rx="2.5" ry="2.5" style="stroke:#181818;stroke-width:0.5;" width="135.2588" x="75.37" y="290.73"/><rect fill="#F1F1F1" height="10" style="stroke:#181818;stroke-width:0.5;" width="15" x="190.6288" y="295.73"/><rect fill="#F1F1F1" height="2" style="stroke:#181818;stroke-width:0.5;" width="4" x="188.6288" y="297.73"/><rect fill="#F1F1F1" height="2" style="stroke:#181818;stroke-width:0.5;" width="4" x="188.6288" y="301.73"/><text fill="#000000" font-family="sans-serif" font-size="14" lengthAdjust="spacing" textLength="95.2588" x="90.37" y="323.7251">Dovecot Auth</text></g><!--entity Submission--><g class="entity" data-entity="Submission" data-source-line="10" data-uid="ent0006" id="entity_Submission"><ellipse cx="143.0008" cy="424.6942" fill="#F1F1F1" rx="121.2708" ry="26.6542" style="stroke:#181818;stroke-width:0.5;"/><text fill="#000000" font-family="sans-serif" font-size="14" lengthAdjust="spacing" textLength="78.4971" x="103.7523" y="415.1773">submission</text><text fill="#000000" font-family="sans-serif" font-size="14" lengthAdjust="spacing" textLength="213.0352" x="36.4832" y="431.4742">(Validates SMTP; proxies mail)</text></g><!--entity Storage--><g class="entity" data-entity="Storage" data-source-line="11" data-uid="ent0007" id="entity_Storage"><path d="M48.17,546.99 C48.17,536.99 102.002,536.99 102.002,536.99 C102.002,536.99 155.8341,536.99 155.8341,546.99 L155.8341,572.2869 C155.8341,582.2869 102.002,582.2869 102.002,582.2869 C102.002,582.2869 48.17,582.2869 48.17,572.2869 L48.17,546.99" fill="#F1F1F1" style="stroke:#181818;stroke-width:0.5;"/><path d="M48.17,546.99 C48.17,556.99 102.002,556.99 102.002,556.99 C102.002,556.99 155.8341,556.99 155.8341,546.99" fill="none" style="stroke:#181818;stroke-width:0.5;"/><text fill="#000000" font-family="sans-serif" font-size="14" lengthAdjust="spacing" textLength="87.6641" x="58.17" y="573.9851">Mail Storage</text></g><!--entity MUA--><g class="entity" data-entity="MUA" data-source-line="3" data-uid="ent0002" id="entity_MUA"><ellipse cx="142.9977" cy="14" fill="#F1F1F1" rx="8" ry="8" style="stroke:#181818;stroke-width:0.5;"/><path d="M142.9977,22 L142.9977,49 M129.9977,30 L155.9977,30 M142.9977,49 L129.9977,64 M142.9977,49 L155.9977,64" fill="none" style="stroke:#181818;stroke-width:0.5;"/><text fill="#000000" font-family="sans-serif" font-size="14" lengthAdjust="spacing" textLength="120.6953" x="82.65" y="78.4951">MUA (Mail Client)</text></g><!--entity MTA--><g class="entity" data-entity="MTA" data-source-line="14" data-uid="ent0008" id="entity_MTA"><polygon fill="#F1F1F1" points="295.75,538.34,305.75,528.34,468.2441,528.34,468.2441,580.9338,458.2441,590.9338,295.75,590.9338,295.75,538.34" style="stroke:#181818;stroke-width:0.5;"/><line style="stroke:#181818;stroke-width:0.5;" x1="458.2441" x2="468.2441" y1="538.34" y2="528.34"/><line style="stroke:#181818;stroke-width:0.5;" x1="295.75" x2="458.2441" y1="538.34" y2="538.34"/><line style="stroke:#181818;stroke-width:0.5;" x1="458.2441" x2="458.2441" y1="538.34" y2="590.9338"/><text fill="#000000" font-family="sans-serif" font-size="14" lengthAdjust="spacing" textLength="95.0195" x="310.75" y="561.3351">Backend MTA</text><text fill="#000000" font-family="sans-serif" font-size="14" lengthAdjust="spacing" textLength="132.4941" x="310.75" y="577.632">(e.g., Postfix/Exim)</text></g><!--entity Net--><g class="entity" data-entity="Net" data-source-line="16" data-uid="ent0009" id="entity_Net"><path d="M317.7022,660.0263 C321.4718,653.2149 327.17,653.8885 331.292,659.6451 C335.293,652.8233 340.1163,653.008 343.9889,659.7651 C347.7197,653.7608 353.1,653.5223 357.1061,659.4628 C361.3493,652.1996 366.0234,652.0486 370.7222,659.0272 C374.4936,651.5744 378.3688,651.1105 383.595,657.6929 C388.1897,651.1091 391.9491,652.1043 395.9388,658.2782 C399.5876,652.0389 404.7313,653.0166 408.4149,658.2402 C413.0043,652.2408 418.1747,652.6127 422.1778,658.8971 C427.1476,653.6002 433.2176,654.0653 436.1169,661.2157 C439.0596,653.5637 445.4449,653.0351 449.7152,659.9789 C458.653,661.4671 460.6531,668.1865 455.7086,675.1566 C462.845,683.1062 460.2808,690.1617 449.6906,691.639 C445.2732,699.1638 440.3329,700.1163 435.0249,692.5017 C430.594,697.4559 426.9225,697.1536 423.0355,691.8651 C418.906,698.2885 414.4879,698.401 409.1615,693.3068 C405.9009,698.6431 400.3578,699.9868 396.7468,693.6804 C393.7639,700.8263 388.4509,700.768 383.8562,695.3317 C378.3629,700.9158 374.0011,700.312 370.2027,693.4694 C366.2016,699.733 361.5947,700.2123 356.9043,694.2172 C352.4125,700.5241 346.0191,700.0403 343.143,692.5999 C338.7868,697.6639 334.3511,696.6259 331.0528,691.3615 C327.7197,697.1123 320.8951,698.4574 317.113,691.8688 C308.4154,687.6808 306.9988,682.2707 315.0247,675.8962 C308.4231,669.1558 309.4969,664.2684 317.7022,660.0263" fill="#F1F1F1" style="stroke:#181818;stroke-width:0.5;"/><text fill="#000000" font-family="sans-serif" font-size="14" lengthAdjust="spacing" textLength="117.209" x="323.4" y="679.9251">Remote Delivery</text></g><!--link MUA to SubLogin--><g class="link" data-entity-1="MUA" data-entity-2="SubLogin" data-source-line="19" data-uid="lnk10" id="link_MUA_SubLogin"><path d="M143,81.95 C143,112.08 143,147.6 143,173.55" fill="none" id="MUA-to-SubLogin" style="stroke:#181818;stroke-width:1;"/><polygon fill="#181818" points="143,179.55,147,170.55,143,174.55,139,170.55,143,179.55" style="stroke:#181818;stroke-width:1;"/><text fill="#000000" font-family="sans-serif" font-size="13" lengthAdjust="spacing" textLength="196.1616" x="148.1323" y="124.8669">Connect (SMTP: Port 465/587)</text></g><!--link SubLogin to Auth--><g class="link" data-entity-1="SubLogin" data-entity-2="Auth" data-source-line="20" data-uid="lnk11" id="link_SubLogin_Auth"><path d="M143,230.07 C143,248.22 143,266.83 143,284.5" fill="none" id="SubLogin-to-Auth" style="stroke:#181818;stroke-width:1;"/><polygon fill="#181818" points="143,290.5,147,281.5,143,285.5,139,281.5,143,290.5" style="stroke:#181818;stroke-width:1;"/></g><!--link Auth to Submission--><g class="link" data-entity-1="Auth" data-entity-2="Submission" data-source-line="21" data-uid="lnk12" id="link_Auth_Submission"><path d="M143,337.43 C143,354.98 143,373.36 143,391.73" fill="none" id="Auth-to-Submission" style="stroke:#181818;stroke-width:1;"/><polygon fill="#181818" points="143,397.73,147,388.73,143,392.73,139,388.73,143,397.73" style="stroke:#181818;stroke-width:1;"/></g><!--link Submission to Storage--><g class="link" data-entity-1="Submission" data-entity-2="Storage" data-source-line="22" data-uid="lnk13" id="link_Submission_Storage"><path d="M135,451.64 C127.35,476.42 117.728,507.6264 110.528,530.9764" fill="none" id="Submission-to-Storage" style="stroke:#181818;stroke-width:1;stroke-dasharray:7,7;"/><polygon fill="#181818" points="108.76,536.71,115.2344,529.2882,110.2333,531.932,107.5895,526.9309,108.76,536.71" style="stroke:#181818;stroke-width:1;"/><text fill="#000000" font-family="sans-serif" font-size="13" lengthAdjust="spacing" textLength="160.6973" x="125.95" y="494.4069">(Optional) Handles BURL</text></g><!--link Submission to MTA--><g class="link" data-entity-1="Submission" data-entity-2="MTA" data-source-line="23" data-uid="lnk14" id="link_Submission_MTA"><path d="M216.28,446.3 C242.12,455.16 270.76,466.85 295,481.34 C316.33,494.09 332.9593,508.236 348.9393,523.856" fill="none" id="Submission-to-MTA" style="stroke:#181818;stroke-width:1;"/><polygon fill="#181818" points="353.23,528.05,349.59,518.8985,349.6544,524.555,343.9979,524.6194,353.23,528.05" style="stroke:#181818;stroke-width:1;"/><text fill="#000000" font-family="sans-serif" font-size="13" lengthAdjust="spacing" textLength="155.1558" x="319.56" y="494.4069">Relays message (SMTP)</text></g><!--link MTA to Net--><g class="link" data-entity-1="MTA" data-entity-2="Net" data-source-line="24" data-uid="lnk15" id="link_MTA_Net"><path d="M382,591.34 C382,610.37 382,628.38 382,645.64" fill="none" id="MTA-to-Net" style="stroke:#181818;stroke-width:1;"/><polygon fill="#181818" points="382,651.64,386,642.64,382,646.64,378,642.64,382,651.64" style="stroke:#181818;stroke-width:1;"/></g><!--SRC=[RL7BRi8m4BpxArOvj20Lk9IseX8IBwa7A8ZNfUt190jOTRnHxF1GrN_lscaeXrwSZNTsTcRiA0D7i27dA8L4vHWxHKO86JlAORBgmPk0yArDfD8mq0gDguiF8J8PVyeTGZIShaU3wJA2BuOM5cDf-TOMcrHPosmDJJjbtatjHPf4euNbU04tq2lSlXw1jB0eDcCFuV6OqemChs1QEc1CBk02p1V_Rs3kjTGgaOxP5vFbx1cod4wA_r9MVTdo2sSIXifDO0cs5koMlPIuiXRVGXXA6D5desWIc2nxl0YRk-OTpCYwhJgrHYULblJS5IBML2GGpJ4bXp14hGwOdqF_5PqGjtotLGR1xP6z6bFcRS5hIO1CQ6mr7ONFl97GqJIwbu2W0n4CoZ6eUQCTLf8xk7zejzfFZ_L8NA3LR4ZD7zTiLH1_9JIRtSgwNrERPbwPr7Medgs_ce-Zwv6AaAtxaJbgUUR4qLfF4lIn8j-ja3w47m00]--></g></svg>